Love for All and Sharing is the first step to solving all the problems of humanity.

Website I want to share. 
               
   http://www.scenetime.com
 
 
  Credit to EVERYONE for sharing and seeding back
 especially to SCENETIME.COM where i get all my 
 downloads.


 support www.scenetime.com to grow faster.

                             
                                                            
                                                   

.                 ..................................NFO:....................................*******************************************************************************
                     Trackman.2007.DVDRip.AC3.X264-BARC0DE
*******************************************************************************

-------------------------------------------------------------------------------
                              General Information
-------------------------------------------------------------------------------
Type.................: Movie
Name.................: Trackman - Putevoy obkhodchik (original title)
Movie Information....: http://www.imdb.com/title/tt0900381/
Genre................: Horror | Thriller

-------------------------------------------------------------------------------
                                    PLOT
-------------------------------------------------------------------------------
The story unfolds in the functioning lines of the Moscow Subway, as well as in the 
desolate ones--in the channels of underground rivers, the real tunnels of the 
centuries-old underground of Moscow. The scene is entangled with numerous legends 
and scary stories. It is there that the main characters fall into a trap; they 
are chased by an underground dweller. They have to survive or die.

-------------------------------------------------------------------------------
                                    CAST
-------------------------------------------------------------------------------
Dmitriy Orlov	... 	Grom
Svetlana Metkina	... 	Katya
Aleksandr Vysokovskiy	... 	Pakhomov
Yuliya Mikhailova	... 	Olga
Aleksey Dmitriev	... 	Trackman
Oleg Kamenshchikov	... 	Irkut
Tomas Motskus	... 	Kostya
-------------------------------------------------------------------------------
                                    MEDiA iNFO
-------------------------------------------------------------------------------

General
Complete name                    : Trackman.2007.DVDRip.AC3.X264-BARC0DE.mkv
Format                           : Matroska
File size                        : 1.09 GiB
Duration                         : 1h 20mn
Overall bit rate                 : 1 946 Kbps

Video
ID                               : 1
Format                           : AVC
Format/Info                      : Advanced Video Codec
Format profile                   : High@L3.0
Format settings, CABAC           : Yes
Format settings, ReFrames        : 3 frames
Format settings, GOP             : M=1, N=10
Muxing mode                      : Container profile=Unknown@3.0
Codec ID                         : V_MPEG4/ISO/AVC
Duration                         : 1h 20mn
Bit rate                         : 1 502 Kbps
Width                            : 720 pixels
Height                           : 320 pixels
Display aspect ratio             : 2.25:1
Frame rate                       : 23.976 fps
Color space                      : YUV
Chroma subsampling               : 4:2:0
Bit depth                        : 8 bits
Scan type                        : Progressive
Bits/(Pixel*Frame)               : 0.272
Stream size                      : 838 MiB (75%)
Writing library                  : x264 core 79


Audio
ID                               : 2
Format                           : AC-3
Format/Info                      : Audio Coding 3
Mode extension                   : CM (complete main)
Codec ID                         : A_AC3
Duration                         : 1h 20mn
Bit rate mode                    : Constant
Bit rate                         : 448 Kbps
Channel(s)                       : 6 channels
Channel positions                : Front: L C R, Side: L R, LFE
Sampling rate                    : 48.0 KHz
Stream size                      : 257 MiB (23%)
Language                         : English

Text #1
ID                               : 3
Format                           : VobSub
Codec ID                         : S_VOBSUB
Codec ID/Info                    : The same subtitle format used on DVDs
Language                         : English

Text #2
ID                               : 4
Format                           : VobSub
Codec ID                         : S_VOBSUB
Codec ID/Info                    : The same subtitle format used on DVDs
Language                         : Spanish